<?xml version="1.0" encoding="utf-8"?>
<!-- Generator: Adobe Illustrator 16.0.0, SVG Export Plug-In . SVG Version: 6.00 Build 0)  -->
<!DOCTYPE svg PUBLIC "-//W3C//DTD SVG 1.1//EN" "http://www.w3.org/Graphics/SVG/1.1/DTD/svg11.dtd">
<svg version="1.1" id="Layer_1" xmlns="http://www.w3.org/2000/svg" xmlns:xlink="http://www.w3.org/1999/xlink" x="0px" y="0px"
	 width="641.782px" height="693.393px" viewBox="0 0 641.782 693.393" enable-background="new 0 0 641.782 693.393"
	 xml:space="preserve">
<g>
	<path fill-rule="evenodd" clip-rule="evenodd" fill="#0000E1" d="M401.861,646.848c-7.654-3.627-13.155-9.736-18.291-16.169
		c-9.223-11.554-13.233-24.945-13.241-39.591c-0.032-48.4,0.012-96.803-0.032-145.203c-0.005-5.896,0.499-11.769,2.405-17.271
		c7.723-22.274,22.545-37.306,45.609-43.668c5.574-1.537,11.259-1.908,16.98-1.913c28.131-0.022,56.266,0.237,84.395-0.11
		c10.211-0.126,20.039,1.317,29.86,3.693c27.313,6.607,54.648,13.125,81.958,19.752c3.909,0.949,7.783,1.9,9.484,6.542
		c2.181,5.949-0.205,10.918-6.321,12.371c-17.698,4.204-35.375,8.491-53.063,12.728c-14.049,3.365-28.101,6.721-42.162,10.033
		c-2.367,0.559-4.779,0.854-7.242,0.851c-27.696-0.026-55.391-0.033-83.086,0.011c-5.84,0.01-10.604,2.074-13.004,7.842
		c-0.806,1.938-1.065,4.045-1.066,6.13c-0.022,39.927,0.062,79.853-0.128,119.779c-0.021,4.317,4.408,8.827,8.352,8.788
		c1.573-0.018,3.145,0.038,4.717,0.039c24.813,0.004,49.625,0.104,74.437-0.051c7.558-0.047,14.887,0.698,22.25,2.517
		c28.298,6.986,56.669,13.687,85.007,20.514c1.634,0.394,3.221,0.976,4.83,1.466c5.287,1.612,6.805,3.514,7.063,8.843
		c-0.183,0.374-0.486,0.742-0.531,1.138c-0.506,4.58-3.506,6.32-7.628,7.227c-8.054,1.771-16.056,3.779-24.073,5.715
		c-18.394,4.441-36.772,8.939-55.178,13.328c-8.6,2.05-17.099,4.437-26.125,4.379c-28.281-0.179-56.565-0.196-84.848-0.01
		c-13.914,0.092-27.108-2.502-39.574-8.707c-0.353-0.207-0.704-0.416-1.052-0.622C402.41,646.943,402.221,646.729,401.861,646.848z
		 M391.036,411.943c-0.246,0.314-0.491,0.63-0.736,0.944c-0.248,0.431-0.496,0.862-0.744,1.294c-0.371,0.873-0.708,1.763-1.12,2.617
		c-1.019,2.115-1.931,4.271-2.44,6.57c-0.236,1.063-0.805,2.622,0.242,3.063c1.038,0.438,1.775-1.087,2.407-1.957
		c1.22-1.68,2.276-3.478,3.482-5.169c3.791-5.325,8.068-10.168,13.778-13.546c0.319-0.081,0.688-0.085,0.948-0.256
		c7.369-4.81,15.376-8.021,24.027-9.626c0.623-0.116,1.311-0.253,1.25-1.037c-0.071-0.919-0.874-0.94-1.58-0.986
		c-7.162-0.461-14.123,0.074-20.957,2.714c-7.319,2.828-12.97,7.49-17.419,13.802c-0.262,0.309-0.523,0.615-0.784,0.922
		C391.272,411.51,391.154,411.727,391.036,411.943z"/>
	<path fill-rule="evenodd" clip-rule="evenodd" fill="#0000E1" d="M469.863,567.871c-3.553-0.073-5.751-1.996-6.884-5.207
		c-1.151-3.266-0.418-6.306,1.964-8.678c9.642-9.608,19.033-19.471,28.989-28.762c3.773-3.521,3.857-7.927,0.143-11.674
		c-9.711-9.797-19.416-19.598-29.153-29.367c-3.628-3.642-3.267-9.232,0.607-12.009c2.143-1.534,4.392-1.573,6.884-1.044
		c19.065,4.051,37.86,9.201,56.77,13.885c34.111,8.45,68.192,17.02,102.271,25.596c2.511,0.633,5.063,1.284,7.198,2.992
		c2.332,1.868,3.188,4.174,2.435,7.321c-1.243,3.999-4.254,5.396-8.123,6.32c-16.806,4.019-33.549,8.296-50.309,12.51
		c-15.665,3.938-31.311,7.961-46.985,11.864C513.745,557.076,491.799,562.457,469.863,567.871z M506.284,528.816
		c-0.047-1.123,0.241-2.217-0.914-2.689c-1.077-0.441-1.814,0.27-2.506,0.967c-2.89,2.911-5.803,5.8-8.661,8.74
		c-3.527,3.624-7.012,7.288-10.504,10.945c-0.466,0.488-1.202,0.998-0.735,1.766c0.442,0.729,1.261,0.395,1.913,0.245
		c0.502-0.115,0.964-0.401,1.449-0.595c6.619-2.637,11.938-7.025,16.527-12.363C504.633,533.762,505.957,531.42,506.284,528.816z"/>
</g>
<g id="layer1" transform="translate(-69.980994,-160.33288)">
	<g id="g3699" transform="matrix(1.532388,0,0,1.3939671,-54.912136,-41.792396)">
		<path id="path2836" display="none" fill="#0000FF" d="M189.412,416.763L91.195,524.878l97.808,107.664l98.217-108.114
			L189.412,416.763z"/>
		<path id="path2838" display="none" fill="#0000FF" d="M189.003,417.214v-9.46L82.192,525.328h9.003L189.003,417.214z"/>
		<path id="path2840" display="none" fill="#0000FF" d="M188.757,417.214v-9.46l106.811,117.575h-9.004L188.757,417.214z"/>
		<path id="path2842" display="none" fill="#0000FF" d="M189.003,633.173v9.46L82.192,525.058h9.003L189.003,633.173z"/>
		<path id="path2844" display="none" fill="#0000FF" d="M188.757,633.173v9.46l106.811-117.575h-9.004L188.757,633.173z"/>
		<path id="path3640" display="none" fill="#0000FF" d="M171.61,426.899l3.888-2.252l-3.99-4.393H102.04l-3.53,3.886v14.697
			l3.914,4.308l1.867-4.308l-2.455-2.703v-10.361l1.841-1.802h66.296L171.61,426.899L171.61,426.899z"/>
		<path id="path3632" display="none" fill="#0000FF" d="M220.724,423.517l-2.453,2.7v9.913l2.149,2.365h11.351v9.578l-75.09,83.78
			v-93.24h12.479l2.56-2.818v-10.032l-2.364-2.01h-65.672l-2.149,2.365v10.249l2.184,2.404h11.423v171.7l2.149,2.365h12.98
			l157.359-178.735v-7.884l-2.454-2.7H220.724z"/>
		<path id="path3646" display="none" fill="#0000FF" d="M115.029,438.488v172.01l2.026,2.547l-1.588,3.333l-4.488-4.925V442.948
			L115.029,438.488z"/>
		<path id="path3644" display="none" fill="#0000FF" d="M103.806,438.488l-1.158,4.141h8.392l4.63-4.141H103.806z"/>
		<path id="path3638" display="none" fill="#0000FF" d="M219.082,443.139l1.841-4.167l-2.66-2.703v-9.235l3.069-3.379h64.046
			l2.455,3.604l3.479-2.703l-3.581-3.941h-68.854l-3.427,3.773v14.81l3.555,3.688 M163.362,513.996l-6.688,17.864l75.504-83.338
			v-9.91L163.362,513.996L163.362,513.996z"/>
		<path id="path3642" display="none" fill="#0000FF" d="M171.457,426.383l3.328-2.389v14.493l-3.834,4.221H163.5v71.432
			l-6.801,17.679v-93.331h12.443l2.315-2.07V426.383L171.457,426.383z"/>
		<path id="path3622" display="none" fill="#0000FF" d="M220.724,423.517l-2.453,2.7v9.913l2.149,2.365h11.351v9.578l-75.09,83.78
			v-93.24h12.479l2.56-2.818v-10.032l-2.364-2.01h-65.672l-2.149,2.365v10.249l2.184,2.404h11.423v171.7l2.149,2.365h12.98
			l157.359-178.735v-7.884l-2.454-2.7H220.724z"/>
		<path id="path3636" display="none" fill="#0000FF" d="M287.833,426.449l3.495-2.221v13.933L132.813,616.464h-16.829l1.608-3.517
			h12.891l157.147-178.615L287.833,426.449z"/>
		<path id="path3652" display="none" fill="#0000FF" d="M231.864,438.727l-3.545,4.061h-9.26l2.17-4.061
			C221.302,438.727,231.864,438.727,231.864,438.727z"/>
		<g>
			<polygon fill="#0000FF" points="170.878,419.694 102.007,419.694 98.535,423.835 98.535,438.807 101.718,442.31 110.415,442.31 
				110.415,493.072 173.977,423.105 			"/>
			<polygon fill="#0000FF" points="229.042,442.948 225.235,447.082 254.525,479.324 291.257,437.851 291.257,423.835 
				287.786,420.013 218.046,420.013 214.574,423.516 214.574,435.346 221.479,442.948 			"/>
			<polygon fill="#0000FF" points="110.415,612.612 115.608,615.912 133.549,615.912 148.672,598.838 110.415,556.725 			"/>
			<polygon fill="#0000FF" points="81.502,524.898 110.415,556.725 110.415,493.072 			"/>
			<path fill="#0000FF" d="M222.353,581.252l-8.379,29.031h2.936c0.074,0.001,0.148,0.015,0.218,0.04
				c0.073,0.028,0.137,0.07,0.196,0.118l17.326-19.072l2.868-10.116H222.353z"/>
			<path fill="#0000FF" d="M198.609,615.938c-0.37-0.137-0.569-0.577-0.445-0.985l13.142-42.629h-4.225
				c-0.074-0.001-0.147-0.015-0.217-0.041c-0.37-0.136-0.569-0.577-0.445-0.984l1.45-4.77c0.101-0.306,0.366-0.511,0.662-0.512
				h15.774c0.189,0.001,0.37,0.087,0.502,0.236l4.404,5.027h6.606l4.154-5.164c0.101-0.132,0.24-0.222,0.394-0.256
				c0.048-0.005,0.096-0.005,0.143,0h10.259c0.195-0.004,0.383,0.082,0.519,0.236l3.018,3.637l41.177-45.327l-40.956-45.083
				l-53.079,59.929h1.446c0.187-0.003,0.367,0.075,0.502,0.217l2.023,2.226c0.183,0.202,0.251,0.496,0.179,0.769l-2.614,9.874
				c-0.033,0.127-0.094,0.242-0.179,0.335l-2.453,2.72c-0.134,0.142-0.315,0.22-0.502,0.216h-9.4
				c-0.186,0.003-0.366-0.074-0.501-0.216l-1.417-1.559l-10.51,11.867h19.948c0.074,0.001,0.147,0.014,0.217,0.04
				c0.37,0.137,0.569,0.577,0.445,0.985l-13.571,43.555h4.512c0.072-0.001,0.143,0.01,0.212,0.034
				c0.373,0.125,0.583,0.56,0.469,0.971l-1.307,4.631c-0.098,0.322-0.372,0.537-0.681,0.533H168.3
				c-0.074-0.001-0.147-0.015-0.217-0.041c-0.37-0.136-0.57-0.577-0.445-0.984l13.715-43.102h-5.533
				c-0.056-0.001-0.112-0.009-0.165-0.023c-0.379-0.104-0.609-0.527-0.515-0.943l0.742-3.242l-27.21,30.721l39.596,43.586
				l24.023-26.445h-13.464C198.753,615.978,198.68,615.964,198.609,615.938z"/>
			<polygon fill="#0000FF" points="175.074,438.488 171.747,442.948 164.223,442.948 164.223,513.344 225.235,447.082 
				221.479,442.948 218.336,442.948 214.574,438.488 214.574,435.346 188.715,406.882 173.977,423.105 175.074,424.313 			"/>
			<path fill="#0000FF" d="M280.291,566.313c-0.139-0.192-0.351-0.302-0.573-0.296h-12.73c-0.195-0.004-0.383,0.082-0.519,0.236
				l-4.01,4.849h-7.019l-1.136-1.369l-19.654,21.635l-6.692,23.605c-0.114,0.411,0.096,0.846,0.469,0.971
				c0.068,0.023,0.14,0.035,0.211,0.035h16.203c0.281-0.003,0.535-0.189,0.645-0.474l1.45-3.824
				c0.143-0.399-0.034-0.851-0.396-1.009c-0.08-0.035-0.164-0.053-0.249-0.055h-2.936l8.522-29.524h14.431l-9.704,33.879
				c-0.114,0.411,0.096,0.846,0.469,0.971c0.068,0.023,0.14,0.035,0.212,0.035h17.797c0.292,0.001,0.555-0.195,0.662-0.493
				l1.45-4.159c0.135-0.404-0.054-0.849-0.42-0.998c-0.078-0.031-0.16-0.047-0.242-0.047h-3.527l10.724-38.333
				c0.071-0.242,0.032-0.507-0.108-0.71L280.291,566.313z"/>
			<path fill="#0000FF" d="M215.621,615.979c0.296-0.001,0.561-0.206,0.662-0.513l1.29-4.159c0.099-0.326-0.011-0.671-0.249-0.867
				l-5.032,5.539H215.621z"/>
			<path fill="#0000FF" d="M176.841,565.702c-0.263,0.062-0.471,0.284-0.537,0.572l-0.422,1.842l2.138-2.414h-1.036
				C176.936,565.697,176.888,565.697,176.841,565.702z"/>
			<path fill="#0000FF" d="M194.064,539.253c-0.119,0.028-0.23,0.089-0.322,0.177l-3.043,2.877
				c-0.091,0.092-0.159,0.207-0.198,0.336l-3.044,9.381c-0.091,0.281-0.029,0.595,0.161,0.808l0.911,1.002l12.915-14.582h-7.238
				C194.16,539.248,194.112,539.248,194.064,539.253z"/>
		</g>
	</g>
</g>
<g>
	<path fill="#0000E1" d="M314.903,317.954l-11.134-16.452l-12.574-14.042c0,0-7.263-8.71-9.202-9.195
		c-1.932-0.478-0.962-9.188-0.962-9.188l-0.969-9.195l-7.264-11.619l-14.034-9.68l-5.318-14.512c0,0-4.847-10.166-5.325-12.582
		c-0.485-2.423,0-6.778,0-6.778s5.325,0,7.741,0c2.417,0,10.158,0,12.581,0c2.424,0-1.454-7.258-1.454-7.258l-9.68-16.459
		l-4.833-12.58l0.485-18.384c0,0-0.055-0.47-0.125-1.226L151.26,325.93h174.356l-2.965-3.621L314.903,317.954z"/>
	<path fill="#0000E1" d="M338.133,93.402l3.387,6.291l3.385,15.972V132.6l-1.938,15.485l-8.219,16.458l-14.036,12.824
		c0,0,2.908,3.627,4.355,3.144c1.446-0.485,4.354-4.833,6.772-3.144c2.416,1.69,5.324,5.082,5.324,5.082s1.447,9.681,1.447,15.49
		c0,5.803,0.49,19.353,0.49,19.353l3.387,28.554l-7.74,2.902l-4.355,6.779l1.938,2.9c0,0,3.863-0.97,5.803-1.939
		c1.939-0.961,6.295,0,6.295,0l6.279,7.749l2.908,11.126l-8.711,17.913l-9.68,8.226l-4.354,12.581c0,0,6.071,7.402,9.638,11.847
		h151.084L336.846,57.546c-1.129,6.173-3.067,16.919-3.067,17.95C333.779,76.948,338.133,93.402,338.133,93.402z"/>
	<path fill="#0000E1" d="M363.773,342.638c-2.415-0.485-6.28-0.969-7.741-3.385c-1.447-2.423-12.096-8.711-13.064-10.165
		c-0.25-0.381-1.205-1.593-2.459-3.158h-14.893l10.102,12.354c0,0,12.096,11.612,14.035,12.097
		c1.925,0.485,16.451,4.354,16.451,4.354l2.416-3.385c0,0,6.295-2.908,4.833-3.871C372.006,346.509,366.204,343.123,363.773,342.638
		z"/>
	<path fill="#0000E1" d="M307.246,59.602c-1.329,1.773-10.193,22.158-11.079,23.93c-0.886,1.773-7.09,29.247-7.09,31.019
		s2.216,25.703,2.216,28.361c0,2.659-2.659,29.69-2.216,33.679c0.443,3.988-0.048,23.93-0.048,23.93s2.707,15.51,3.15,16.839
		c0.443,1.329,4.431,15.51,4.431,15.51l1.454,3.385l2.534,5.921l-2.215-20.386l-4.875-22.6l-0.443-31.905
		c0,0,1.772-17.02,1.772-18.481c0-1.461-1.329-15.198-1.329-17.415c0-2.214-0.443-20.826-0.443-20.826s2.216-13.295,3.545-16.84
		c1.331-3.545,6.205-19.145,6.648-19.321c0.442-0.176,11.078-24.105,11.964-25.436c0.887-1.329,6.204-12.408,6.204-12.408
		l1.351-3.425l14.07,24.412c0.463-2.527,0.796-4.31,0.796-4.31s7.755-6.294,8.71-9.196c0.97-2.904,5.325-15.484,5.816-17.909
		c0.479-2.416,3.387-15.485,3.387-15.485L359.418,0h-13.066h-5.802c0,0-22.745,11.615-25.647,14.036
		c-2.908,2.416-14.997,18.875-16.936,21.294c-1.939,2.42-30.493,33.874-30.978,36.293c-0.484,2.42-15.482,43.075-16.452,44.526
		c-0.858,1.284,1.696,26.823,2.299,32.656l64.711-112.859C316.44,37.903,308.575,57.833,307.246,59.602z"/>
</g>
</svg>
